<mxfile host="Electron" modified="2024-03-11T18:44:03.102Z" agent="Mozilla/5.0 (Windows NT 10.0; Win64; x64) AppleWebKit/537.36 (KHTML, like Gecko) draw.io/24.0.4 Chrome/120.0.6099.109 Electron/28.1.0 Safari/537.36" etag="k3bI9-th-fj0w4vyfRgP" version="24.0.4" type="device">
  <diagram name="Страница — 1" id="dMFJq0YXfHRsr0oo6srr">
    <mxGraphModel dx="682" dy="2102" grid="1" gridSize="10" guides="1" tooltips="1" connect="1" arrows="1" fold="1" page="1" pageScale="1" pageWidth="827" pageHeight="1169" math="0" shadow="0">
      <root>
        <mxCell id="0" />
        <mxCell id="1" parent="0" />
        <mxCell id="LXvevlxG_UneQoSCqix3-5" value="Аналіз" style="swimlane;fontStyle=0;childLayout=stackLayout;horizontal=1;startSize=30;horizontalStack=0;resizeParent=1;resizeParentMax=0;resizeLast=0;collapsible=1;marginBottom=0;whiteSpace=wrap;html=1;" vertex="1" parent="1">
          <mxGeometry x="870" y="-1060" width="160" height="290" as="geometry">
            <mxRectangle x="960" y="-280" width="80" height="30" as="alternateBounds" />
          </mxGeometry>
        </mxCell>
        <mxCell id="LXvevlxG_UneQoSCqix3-6" value="&lt;span style=&quot;text-align: center;&quot;&gt;Проведення інтерв&#39;ю з замовником&lt;/span&gt;" style="text;strokeColor=default;fillColor=none;align=left;verticalAlign=middle;spacingLeft=4;spacingRight=4;overflow=hidden;points=[[0,0.5],[1,0.5]];portConstraint=eastwest;rotatable=0;whiteSpace=wrap;html=1;rounded=0;shadow=0;textShadow=0;glass=0;" vertex="1" parent="LXvevlxG_UneQoSCqix3-5">
          <mxGeometry y="30" width="160" height="40" as="geometry" />
        </mxCell>
        <mxCell id="LXvevlxG_UneQoSCqix3-7" value="&lt;span style=&quot;text-align: center;&quot;&gt;Створення протоколу інтерв&#39;ю&lt;/span&gt;" style="text;strokeColor=default;fillColor=none;align=left;verticalAlign=middle;spacingLeft=4;spacingRight=4;overflow=hidden;points=[[0,0.5],[1,0.5]];portConstraint=eastwest;rotatable=0;whiteSpace=wrap;html=1;" vertex="1" parent="LXvevlxG_UneQoSCqix3-5">
          <mxGeometry y="70" width="160" height="40" as="geometry" />
        </mxCell>
        <mxCell id="LXvevlxG_UneQoSCqix3-8" value="&lt;span style=&quot;text-align: center;&quot;&gt;Створення анкети для замовника&lt;/span&gt;" style="text;strokeColor=default;fillColor=none;align=left;verticalAlign=middle;spacingLeft=4;spacingRight=4;overflow=hidden;points=[[0,0.5],[1,0.5]];portConstraint=eastwest;rotatable=0;whiteSpace=wrap;html=1;" vertex="1" parent="LXvevlxG_UneQoSCqix3-5">
          <mxGeometry y="110" width="160" height="40" as="geometry" />
        </mxCell>
        <mxCell id="LXvevlxG_UneQoSCqix3-14" value="&lt;span style=&quot;text-align: center;&quot;&gt;Аналіз анкетування&lt;/span&gt;" style="text;strokeColor=default;fillColor=none;align=left;verticalAlign=middle;spacingLeft=4;spacingRight=4;overflow=hidden;points=[[0,0.5],[1,0.5]];portConstraint=eastwest;rotatable=0;whiteSpace=wrap;html=1;" vertex="1" parent="LXvevlxG_UneQoSCqix3-5">
          <mxGeometry y="150" width="160" height="30" as="geometry" />
        </mxCell>
        <mxCell id="LXvevlxG_UneQoSCqix3-15" value="&lt;span style=&quot;text-align: center;&quot;&gt;Розробка концепції проекту&lt;/span&gt;" style="text;strokeColor=default;fillColor=none;align=left;verticalAlign=middle;spacingLeft=4;spacingRight=4;overflow=hidden;points=[[0,0.5],[1,0.5]];portConstraint=eastwest;rotatable=0;whiteSpace=wrap;html=1;" vertex="1" parent="LXvevlxG_UneQoSCqix3-5">
          <mxGeometry y="180" width="160" height="40" as="geometry" />
        </mxCell>
        <mxCell id="LXvevlxG_UneQoSCqix3-16" value="&lt;span style=&quot;text-align: center;&quot;&gt;Оцінка ризиків&lt;/span&gt;" style="text;strokeColor=default;fillColor=none;align=left;verticalAlign=middle;spacingLeft=4;spacingRight=4;overflow=hidden;points=[[0,0.5],[1,0.5]];portConstraint=eastwest;rotatable=0;whiteSpace=wrap;html=1;" vertex="1" parent="LXvevlxG_UneQoSCqix3-5">
          <mxGeometry y="220" width="160" height="30" as="geometry" />
        </mxCell>
        <mxCell id="LXvevlxG_UneQoSCqix3-17" value="&lt;span style=&quot;text-align: center;&quot;&gt;Розробка структури проекту&lt;/span&gt;" style="text;strokeColor=default;fillColor=none;align=left;verticalAlign=middle;spacingLeft=4;spacingRight=4;overflow=hidden;points=[[0,0.5],[1,0.5]];portConstraint=eastwest;rotatable=0;whiteSpace=wrap;html=1;" vertex="1" parent="LXvevlxG_UneQoSCqix3-5">
          <mxGeometry y="250" width="160" height="40" as="geometry" />
        </mxCell>
        <mxCell id="LXvevlxG_UneQoSCqix3-9" value="Планування" style="swimlane;fontStyle=0;childLayout=stackLayout;horizontal=1;startSize=30;horizontalStack=0;resizeParent=1;resizeParentMax=0;resizeLast=0;collapsible=1;marginBottom=0;whiteSpace=wrap;html=1;" vertex="1" parent="1">
          <mxGeometry x="1071" y="-1020" width="160" height="220" as="geometry">
            <mxRectangle x="1161" y="-240" width="110" height="30" as="alternateBounds" />
          </mxGeometry>
        </mxCell>
        <mxCell id="LXvevlxG_UneQoSCqix3-10" value="&lt;span style=&quot;text-align: center;&quot;&gt;Створення моделі розробки&lt;/span&gt;" style="text;strokeColor=default;fillColor=none;align=left;verticalAlign=middle;spacingLeft=4;spacingRight=4;overflow=hidden;points=[[0,0.5],[1,0.5]];portConstraint=eastwest;rotatable=0;whiteSpace=wrap;html=1;" vertex="1" parent="LXvevlxG_UneQoSCqix3-9">
          <mxGeometry y="30" width="160" height="40" as="geometry" />
        </mxCell>
        <mxCell id="LXvevlxG_UneQoSCqix3-11" value="&lt;span style=&quot;text-align: center;&quot;&gt;Створення моделі тестування&lt;/span&gt;" style="text;strokeColor=default;fillColor=none;align=left;verticalAlign=middle;spacingLeft=4;spacingRight=4;overflow=hidden;points=[[0,0.5],[1,0.5]];portConstraint=eastwest;rotatable=0;whiteSpace=wrap;html=1;" vertex="1" parent="LXvevlxG_UneQoSCqix3-9">
          <mxGeometry y="70" width="160" height="40" as="geometry" />
        </mxCell>
        <mxCell id="LXvevlxG_UneQoSCqix3-12" value="&lt;span style=&quot;text-align: center;&quot;&gt;Зведення плану проекту&lt;/span&gt;" style="text;strokeColor=default;fillColor=none;align=left;verticalAlign=middle;spacingLeft=4;spacingRight=4;overflow=hidden;points=[[0,0.5],[1,0.5]];portConstraint=eastwest;rotatable=0;whiteSpace=wrap;html=1;" vertex="1" parent="LXvevlxG_UneQoSCqix3-9">
          <mxGeometry y="110" width="160" height="30" as="geometry" />
        </mxCell>
        <mxCell id="LXvevlxG_UneQoSCqix3-24" value="&lt;span style=&quot;text-align: center;&quot;&gt;Створення плану керування ризиками&lt;/span&gt;" style="text;strokeColor=default;fillColor=none;align=left;verticalAlign=middle;spacingLeft=4;spacingRight=4;overflow=hidden;points=[[0,0.5],[1,0.5]];portConstraint=eastwest;rotatable=0;whiteSpace=wrap;html=1;" vertex="1" parent="LXvevlxG_UneQoSCqix3-9">
          <mxGeometry y="140" width="160" height="40" as="geometry" />
        </mxCell>
        <mxCell id="LXvevlxG_UneQoSCqix3-25" value="&lt;span style=&quot;text-align: center;&quot;&gt;Початкова функціональна специфікація&lt;/span&gt;" style="text;strokeColor=default;fillColor=none;align=left;verticalAlign=middle;spacingLeft=4;spacingRight=4;overflow=hidden;points=[[0,0.5],[1,0.5]];portConstraint=eastwest;rotatable=0;whiteSpace=wrap;html=1;" vertex="1" parent="LXvevlxG_UneQoSCqix3-9">
          <mxGeometry y="180" width="160" height="40" as="geometry" />
        </mxCell>
        <mxCell id="LXvevlxG_UneQoSCqix3-29" value="Розробка" style="swimlane;fontStyle=0;childLayout=stackLayout;horizontal=1;startSize=30;horizontalStack=0;resizeParent=1;resizeParentMax=0;resizeLast=0;collapsible=1;marginBottom=0;whiteSpace=wrap;html=1;" vertex="1" parent="1">
          <mxGeometry x="1270" y="-980" width="160" height="110" as="geometry" />
        </mxCell>
        <mxCell id="LXvevlxG_UneQoSCqix3-30" value="&lt;span style=&quot;text-align: center;&quot;&gt;Специфікація і створення сценаріїв тестування&lt;/span&gt;" style="text;strokeColor=default;fillColor=none;align=left;verticalAlign=middle;spacingLeft=4;spacingRight=4;overflow=hidden;points=[[0,0.5],[1,0.5]];portConstraint=eastwest;rotatable=0;whiteSpace=wrap;html=1;" vertex="1" parent="LXvevlxG_UneQoSCqix3-29">
          <mxGeometry y="30" width="160" height="40" as="geometry" />
        </mxCell>
        <mxCell id="LXvevlxG_UneQoSCqix3-31" value="&lt;span style=&quot;text-align: center;&quot;&gt;Кінцева функціональна специфікація&lt;/span&gt;" style="text;strokeColor=default;fillColor=none;align=left;verticalAlign=middle;spacingLeft=4;spacingRight=4;overflow=hidden;points=[[0,0.5],[1,0.5]];portConstraint=eastwest;rotatable=0;whiteSpace=wrap;html=1;" vertex="1" parent="LXvevlxG_UneQoSCqix3-29">
          <mxGeometry y="70" width="160" height="40" as="geometry" />
        </mxCell>
        <mxCell id="LXvevlxG_UneQoSCqix3-35" value="Стабілізація" style="swimlane;fontStyle=0;childLayout=stackLayout;horizontal=1;startSize=30;horizontalStack=0;resizeParent=1;resizeParentMax=0;resizeLast=0;collapsible=1;marginBottom=0;whiteSpace=wrap;html=1;" vertex="1" parent="1">
          <mxGeometry x="1470" y="-940" width="160" height="100" as="geometry" />
        </mxCell>
        <mxCell id="LXvevlxG_UneQoSCqix3-36" value="&lt;span style=&quot;text-align: center;&quot;&gt;Пілотне впровадження&lt;/span&gt;" style="text;strokeColor=default;fillColor=none;align=left;verticalAlign=middle;spacingLeft=4;spacingRight=4;overflow=hidden;points=[[0,0.5],[1,0.5]];portConstraint=eastwest;rotatable=0;whiteSpace=wrap;html=1;" vertex="1" parent="LXvevlxG_UneQoSCqix3-35">
          <mxGeometry y="30" width="160" height="30" as="geometry" />
        </mxCell>
        <mxCell id="LXvevlxG_UneQoSCqix3-37" value="&lt;span style=&quot;text-align: center;&quot;&gt;Звіт з результатів тестування&lt;/span&gt;" style="text;strokeColor=default;fillColor=none;align=left;verticalAlign=middle;spacingLeft=4;spacingRight=4;overflow=hidden;points=[[0,0.5],[1,0.5]];portConstraint=eastwest;rotatable=0;whiteSpace=wrap;html=1;" vertex="1" parent="LXvevlxG_UneQoSCqix3-35">
          <mxGeometry y="60" width="160" height="40" as="geometry" />
        </mxCell>
        <mxCell id="LXvevlxG_UneQoSCqix3-38" value="Провадження" style="swimlane;fontStyle=0;childLayout=stackLayout;horizontal=1;startSize=30;horizontalStack=0;resizeParent=1;resizeParentMax=0;resizeLast=0;collapsible=1;marginBottom=0;whiteSpace=wrap;html=1;" vertex="1" parent="1">
          <mxGeometry x="1670" y="-900" width="160" height="90" as="geometry" />
        </mxCell>
        <mxCell id="LXvevlxG_UneQoSCqix3-39" value="&lt;span style=&quot;text-align: center;&quot;&gt;Звіт про завершення&lt;/span&gt;" style="text;strokeColor=default;fillColor=none;align=left;verticalAlign=middle;spacingLeft=4;spacingRight=4;overflow=hidden;points=[[0,0.5],[1,0.5]];portConstraint=eastwest;rotatable=0;whiteSpace=wrap;html=1;" vertex="1" parent="LXvevlxG_UneQoSCqix3-38">
          <mxGeometry y="30" width="160" height="30" as="geometry" />
        </mxCell>
        <mxCell id="LXvevlxG_UneQoSCqix3-40" value="&lt;span style=&quot;text-align: center;&quot;&gt;Постпроектний аналіз&lt;/span&gt;" style="text;strokeColor=default;fillColor=none;align=left;verticalAlign=middle;spacingLeft=4;spacingRight=4;overflow=hidden;points=[[0,0.5],[1,0.5]];portConstraint=eastwest;rotatable=0;whiteSpace=wrap;html=1;" vertex="1" parent="LXvevlxG_UneQoSCqix3-38">
          <mxGeometry y="60" width="160" height="30" as="geometry" />
        </mxCell>
        <mxCell id="LXvevlxG_UneQoSCqix3-60" value="" style="endArrow=classic;html=1;rounded=0;fontSize=12;startSize=8;endSize=8;exitX=0.995;exitY=0.07;exitDx=0;exitDy=0;exitPerimeter=0;edgeStyle=orthogonalEdgeStyle;" edge="1" parent="1">
          <mxGeometry width="50" height="50" relative="1" as="geometry">
            <mxPoint x="1231" y="-1000" as="sourcePoint" />
            <mxPoint x="1270" y="-960" as="targetPoint" />
            <Array as="points">
              <mxPoint x="1231" y="-999" />
              <mxPoint x="1250" y="-999" />
              <mxPoint x="1250" y="-960" />
            </Array>
          </mxGeometry>
        </mxCell>
        <mxCell id="LXvevlxG_UneQoSCqix3-61" value="" style="endArrow=classic;html=1;rounded=0;fontSize=12;startSize=8;endSize=8;exitX=0.995;exitY=0.07;exitDx=0;exitDy=0;exitPerimeter=0;edgeStyle=orthogonalEdgeStyle;entryX=0.001;entryY=0.091;entryDx=0;entryDy=0;entryPerimeter=0;" edge="1" parent="1" target="LXvevlxG_UneQoSCqix3-9">
          <mxGeometry width="50" height="50" relative="1" as="geometry">
            <mxPoint x="1030" y="-1040" as="sourcePoint" />
            <mxPoint x="1070" y="-1000" as="targetPoint" />
            <Array as="points">
              <mxPoint x="1030" y="-1039" />
              <mxPoint x="1049" y="-1039" />
              <mxPoint x="1049" y="-1000" />
            </Array>
          </mxGeometry>
        </mxCell>
        <mxCell id="LXvevlxG_UneQoSCqix3-62" value="" style="endArrow=classic;html=1;rounded=0;fontSize=12;startSize=8;endSize=8;exitX=0.999;exitY=0.19;exitDx=0;exitDy=0;exitPerimeter=0;edgeStyle=orthogonalEdgeStyle;" edge="1" parent="1" source="LXvevlxG_UneQoSCqix3-29">
          <mxGeometry width="50" height="50" relative="1" as="geometry">
            <mxPoint x="1431" y="-960" as="sourcePoint" />
            <mxPoint x="1470" y="-920" as="targetPoint" />
            <Array as="points">
              <mxPoint x="1431" y="-959" />
              <mxPoint x="1450" y="-959" />
              <mxPoint x="1450" y="-920" />
            </Array>
          </mxGeometry>
        </mxCell>
        <mxCell id="LXvevlxG_UneQoSCqix3-63" value="" style="endArrow=classic;html=1;rounded=0;fontSize=12;startSize=8;endSize=8;exitX=0.999;exitY=0.19;exitDx=0;exitDy=0;exitPerimeter=0;edgeStyle=orthogonalEdgeStyle;" edge="1" parent="1">
          <mxGeometry width="50" height="50" relative="1" as="geometry">
            <mxPoint x="1630" y="-920" as="sourcePoint" />
            <mxPoint x="1670" y="-881" as="targetPoint" />
            <Array as="points">
              <mxPoint x="1631" y="-920" />
              <mxPoint x="1650" y="-920" />
              <mxPoint x="1650" y="-881" />
            </Array>
          </mxGeometry>
        </mxCell>
      </root>
    </mxGraphModel>
  </diagram>
</mxfile>
